<svg id="Layer_1" data-name="Layer 1" xmlns="http://www.w3.org/2000/svg" xmlns:xlink="http://www.w3.org/1999/xlink" viewBox="0 0 182 52"><defs><style>.cls-1{fill:none;}.cls-2{fill:#5d6162;}.cls-3{clip-path:url(#clip-path);}.cls-4{fill:#ecc566;}.cls-5{fill:#4b55a4;}.cls-6{fill:#cd509c;}.cls-7{fill:#4d5051;}.cls-8{fill:#27499b;}.cls-9{fill:#fff;}</style><clipPath id="clip-path"><path class="cls-1" d="M33.1,36.78l-8.2,0,9.62-13.95L34.48,1h-.39l-.15,0-.24,0-.1,0-.29.08h0a3.88,3.88,0,0,0-2.07,1.52L2.18,44.8a3.88,3.88,0,0,0-.7,2.25h0s0,.09,0,.13a1.93,1.93,0,0,0,0,.24.88.88,0,0,0,0,.16,1.85,1.85,0,0,0,0,.23l0,.13a2.68,2.68,0,0,0,.07.27.43.43,0,0,1,0,0,4,4,0,0,0,1.52,2.05h0A4,4,0,0,0,5.45,51l27.67,0Z"/></clipPath></defs><title>amco-logo</title><path class="cls-2" d="M68.48,47a3.94,3.94,0,0,0-.69-2.24L38.64,2.7a3.91,3.91,0,0,0-2.07-1.51h0l-.29-.08-.1,0-.24,0-.15,0h-.39V22.88L45,36.82H36.81V51H64.52a3.94,3.94,0,0,0,2.24-.7h0a3.87,3.87,0,0,0,1.51-2,.14.14,0,0,0,0-.06,1.76,1.76,0,0,0,.07-.27l0-.12a1.85,1.85,0,0,0,0-.23.88.88,0,0,1,0-.16c0-.08,0-.16,0-.24s0-.09,0-.13Z"/><g class="cls-3"><path class="cls-4" d="M39.18,7.59s43.58,4.17,57.06,2.84l1.83,29.2S61,43.4,43.24,51.26A60.49,60.49,0,0,0,12.31,39S33.63,21.1,39.18,7.59Z"/><path class="cls-5" d="M42.63.32a115.48,115.48,0,0,1-33,38.05s-10-1.07-17.88,5.79c0,0-4.68,4-5.84,14.05L-24,54.5a71.74,71.74,0,0,0,4.16-26S12.76,20,28-3.4Z"/><path class="cls-6" d="M-11.49,59.75l21.43,8,35.88-12S33.66,44.64,17.16,41.81c0,0-16.63-4.33-23.3,3.68C-6.14,45.49-9.51,48.8-11.49,59.75Z"/></g><path class="cls-7" d="M168.79,7.13c-6.47,0-11.73,5.92-11.73,13.2s5.26,13.2,11.73,13.2,11.73-5.92,11.73-13.2S175.26,7.13,168.79,7.13Zm0,24.26c-5.29,0-9.59-5-9.59-11.06s4.3-11.06,9.59-11.06,9.59,5,9.59,11.06S174.08,31.39,168.79,31.39Z"/><path class="cls-7" d="M144.57,7.13c-6.49,0-11.77,5.92-11.77,13.2s5.28,13.2,11.77,13.2a12.25,12.25,0,0,0,10.1-5.64l.3-.58.55-1H153.1l-.2.34-.11.18a9.88,9.88,0,0,1-8.22,4.59c-5.3,0-9.62-5-9.62-11.06s4.32-11.06,9.62-11.06a9.64,9.64,0,0,1,8.12,4.58v0l.11.19.21.34h2.32l-.47-1-.26-.56a11.76,11.76,0,0,0-10.05-5.73Z"/><path class="cls-7" d="M128,7.15a1,1,0,0,0-1,.62l-10,22.1-10-22.11a1,1,0,0,0-1-.61,1.05,1.05,0,0,0-1.08,1V33.53H107V13.15l9,19.75a1.09,1.09,0,0,0,2,0l9-19.75,0,19.32v1.07h2.14V32.46L129,8.2a1.06,1.06,0,0,0-1.09-1Z"/><path class="cls-7" d="M90.15,7.16a1.05,1.05,0,0,0-1,.62L78.51,32l-.22.52-.42,1h2.38l.17-.48.06-.19,9.67-22,9.67,22,.06.19.16.48h2.39l-.42-1-.22-.52L91.12,7.77a1,1,0,0,0-1-.61Z"/><rect class="cls-8" x="77.87" y="36.59" width="102.65" height="8.27"/><path class="cls-9" d="M108.58,39.21a.27.27,0,0,1-.08.1.2.2,0,0,1-.11,0,.3.3,0,0,1-.15-.05l-.2-.12a1.27,1.27,0,0,0-.26-.11,1,1,0,0,0-.36-.05,1,1,0,0,0-.32,0,.58.58,0,0,0-.23.13.45.45,0,0,0-.14.19.6.6,0,0,0,0,.24.39.39,0,0,0,.1.28.62.62,0,0,0,.25.19,2.3,2.3,0,0,0,.35.15l.4.13.41.16a1.8,1.8,0,0,1,.35.24,1.07,1.07,0,0,1,.25.35,1.13,1.13,0,0,1,.1.51,1.74,1.74,0,0,1-.11.61,1.37,1.37,0,0,1-.33.49,1.45,1.45,0,0,1-.52.33,1.9,1.9,0,0,1-.7.12,2.28,2.28,0,0,1-.45,0,2.13,2.13,0,0,1-.43-.13,2,2,0,0,1-.38-.2,1.58,1.58,0,0,1-.31-.26l.25-.42L106,42a.24.24,0,0,1,.12,0,.27.27,0,0,1,.17.07l.23.15.31.15a1.32,1.32,0,0,0,.42.07.87.87,0,0,0,.59-.19.64.64,0,0,0,.21-.51.5.5,0,0,0-.09-.31.82.82,0,0,0-.25-.2,2.46,2.46,0,0,0-.36-.14L107,41a2.78,2.78,0,0,1-.4-.16,1.14,1.14,0,0,1-.61-.61,1.51,1.51,0,0,1-.09-.55,1.25,1.25,0,0,1,.1-.51,1.14,1.14,0,0,1,.31-.44,1.42,1.42,0,0,1,.49-.31,1.69,1.69,0,0,1,.66-.12,2.13,2.13,0,0,1,.78.14,1.64,1.64,0,0,1,.61.37Z"/><path class="cls-9" d="M111.89,43.12H111V38.34h.89Z"/><path class="cls-9" d="M114.86,38.34l.07,0,.06,0,.07.08,2.51,3.2a2,2,0,0,1,0-.23c0-.07,0-.14,0-.21v-2.9h.79v4.78h-.46a.48.48,0,0,1-.18,0,.71.71,0,0,1-.13-.12l-2.5-3.19c0,.07,0,.14,0,.21s0,.14,0,.19v2.94h-.79V38.34h.57Z"/><path class="cls-9" d="M123.9,42a.16.16,0,0,1,.13.06l.35.38a1.92,1.92,0,0,1-.71.55,2.49,2.49,0,0,1-1,.19,2.4,2.4,0,0,1-1-.18,2,2,0,0,1-.73-.51,2.19,2.19,0,0,1-.46-.77,2.84,2.84,0,0,1-.16-1,2.64,2.64,0,0,1,.18-1A2.14,2.14,0,0,1,121,39a2.29,2.29,0,0,1,.78-.51,2.64,2.64,0,0,1,1-.18,2.38,2.38,0,0,1,.93.17,2.25,2.25,0,0,1,.69.46l-.3.41a.23.23,0,0,1-.07.07.18.18,0,0,1-.11,0,.29.29,0,0,1-.16-.06l-.2-.13a1.31,1.31,0,0,0-.31-.13,1.74,1.74,0,0,0-1.09.06,1.51,1.51,0,0,0-.49.33,1.67,1.67,0,0,0-.32.53,2.38,2.38,0,0,0,0,1.43,1.56,1.56,0,0,0,.31.52,1.23,1.23,0,0,0,.46.33,1.39,1.39,0,0,0,.57.12l.33,0,.27-.06.24-.12a2.39,2.39,0,0,0,.22-.16.18.18,0,0,1,.07-.05Z"/><path class="cls-9" d="M129.39,38.34V39h-2.12v1.33h1.67v.69h-1.67v1.35h2.12v.71h-3V38.34Z"/><path class="cls-9" d="M134.49,42.51h1V39.72c0-.11,0-.22,0-.34l-.69.57a.18.18,0,0,1-.08,0l-.09,0a.21.21,0,0,1-.12,0s-.07,0-.08-.07l-.26-.35,1.46-1.24h.67v4.18h.86v.61h-2.65Z"/><path class="cls-9" d="M140.52,41.21a1.62,1.62,0,0,1-.49-.08,1.45,1.45,0,0,1-.43-.26,1.3,1.3,0,0,1-.29-.43,1.46,1.46,0,0,1-.12-.6,1.54,1.54,0,0,1,.12-.61,1.55,1.55,0,0,1,.85-.82,1.6,1.6,0,0,1,.67-.13,1.76,1.76,0,0,1,.66.12,1.53,1.53,0,0,1,.5.32,1.51,1.51,0,0,1,.31.5,1.69,1.69,0,0,1,.11.64,2.77,2.77,0,0,1,0,.42c0,.13-.07.26-.11.38a4,4,0,0,1-.17.36l-.22.35-1.1,1.56a.49.49,0,0,1-.17.14.62.62,0,0,1-.25,0h-.75l1.49-1.86.1-.13a1.47,1.47,0,0,1,.1-.13,1.38,1.38,0,0,1-.37.16A1.84,1.84,0,0,1,140.52,41.21Zm1.11-1.43a1,1,0,0,0-.06-.35.78.78,0,0,0-.17-.26.76.76,0,0,0-.26-.16.94.94,0,0,0-.66,0,.74.74,0,0,0-.25.17.71.71,0,0,0-.16.26.88.88,0,0,0-.06.33.82.82,0,0,0,.21.61.76.76,0,0,0,.58.21,1,1,0,0,0,.36-.06.78.78,0,0,0,.26-.17.87.87,0,0,0,.16-.26A1.13,1.13,0,0,0,141.63,39.78Z"/><path class="cls-9" d="M146.14,40.13a1.6,1.6,0,0,1,.53.09,1.29,1.29,0,0,1,.45.27,1.34,1.34,0,0,1,.31.45,1.54,1.54,0,0,1,.12.63,1.59,1.59,0,0,1-.12.62,1.52,1.52,0,0,1-.34.51,1.68,1.68,0,0,1-.54.35,2,2,0,0,1-1.38,0,1.67,1.67,0,0,1-.52-.34,1.69,1.69,0,0,1-.33-.53,2.17,2.17,0,0,1-.11-.69,2,2,0,0,1,.14-.69,3.13,3.13,0,0,1,.42-.74l1.14-1.53a.54.54,0,0,1,.18-.14.67.67,0,0,1,.26,0h.73l-1.42,1.73-.09.11-.08.1a1.33,1.33,0,0,1,.3-.11A1.87,1.87,0,0,1,146.14,40.13ZM145,41.62a1,1,0,0,0,.06.36.85.85,0,0,0,.16.28.64.64,0,0,0,.27.18,1,1,0,0,0,.36.06,1,1,0,0,0,.36-.06.82.82,0,0,0,.28-.19.92.92,0,0,0,.19-.28,1,1,0,0,0,.06-.35,1,1,0,0,0-.06-.36.78.78,0,0,0-.46-.46,1,1,0,0,0-.35-.06,1,1,0,0,0-.36.07,1.27,1.27,0,0,0-.27.18,1,1,0,0,0-.24.63Z"/><path class="cls-9" d="M150.84,41.21a1.62,1.62,0,0,1-.49-.08,1.45,1.45,0,0,1-.43-.26,1.3,1.3,0,0,1-.29-.43,1.46,1.46,0,0,1-.12-.6,1.54,1.54,0,0,1,.12-.61,1.55,1.55,0,0,1,.85-.82,1.6,1.6,0,0,1,.67-.13,1.76,1.76,0,0,1,.66.12,1.53,1.53,0,0,1,.5.32,1.51,1.51,0,0,1,.31.5,1.69,1.69,0,0,1,.11.64,2.77,2.77,0,0,1,0,.42c0,.13-.07.26-.11.38a4,4,0,0,1-.17.36l-.22.35-1.1,1.56a.49.49,0,0,1-.17.14.62.62,0,0,1-.25,0h-.75l1.48-1.86.11-.13a1.47,1.47,0,0,1,.1-.13,1.38,1.38,0,0,1-.37.16A1.84,1.84,0,0,1,150.84,41.21ZM152,39.78a1,1,0,0,0-.06-.35.78.78,0,0,0-.17-.26.76.76,0,0,0-.26-.16.94.94,0,0,0-.66,0,.74.74,0,0,0-.25.17.71.71,0,0,0-.16.26.88.88,0,0,0-.06.33.82.82,0,0,0,.21.61.76.76,0,0,0,.58.21,1,1,0,0,0,.36-.06.9.9,0,0,0,.26-.17.87.87,0,0,0,.16-.26A1.13,1.13,0,0,0,152,39.78Z"/></svg>